<svg xmlns="http://www.w3.org/2000/svg" x="0px" y="0px" width="24" height="24" viewBox="0,0,256,256">
<defs><linearGradient x1="7.534" y1="7.534" x2="27.557" y2="27.557" gradientUnits="userSpaceOnUse" id="color-1_OZuepOQd0omj_gr1"><stop offset="0" stop-color="#fc4747"></stop><stop offset="0.443" stop-color="#ee3d4a"></stop><stop offset="1" stop-color="#e52030"></stop></linearGradient><linearGradient x1="27.373" y1="27.373" x2="40.507" y2="40.507" gradientUnits="userSpaceOnUse" id="color-2_OZuepOQd0omj_gr2"><stop offset="0" stop-color="#a8142e"></stop><stop offset="0.179" stop-color="#ba1632"></stop><stop offset="0.243" stop-color="#c21734"></stop></linearGradient></defs><g fill="none" fill-rule="nonzero" stroke="none" stroke-width="1" stroke-linecap="butt" stroke-linejoin="miter" stroke-miterlimit="10" stroke-dasharray="" stroke-dashoffset="0" font-family="none" font-weight="none" font-size="none" text-anchor="none" style="mix-blend-mode: normal"><g transform="scale(5.33333,5.33333)"><path d="M42.42,12.401c0.774,-0.774 0.774,-2.028 0,-2.802l-4.019,-4.019c-0.774,-0.774 -2.028,-0.774 -2.802,0l-11.599,11.599l-11.599,-11.599c-0.774,-0.774 -2.028,-0.774 -2.802,0l-4.019,4.019c-0.774,0.774 -0.774,2.028 0,2.802l11.599,11.599l-11.599,11.599c-0.774,0.774 -0.774,2.028 0,2.802l4.019,4.019c0.774,0.774 2.028,0.774 2.802,0z" fill="url(#color-1_OZuepOQd0omj_gr1)"></path><path d="M24,30.821l11.599,11.599c0.774,0.774 2.028,0.774 2.802,0l4.019,-4.019c0.774,-0.774 0.774,-2.028 0,-2.802l-11.599,-11.599z" fill="url(#color-2_OZuepOQd0omj_gr2)"></path></g></g>
</svg>